<svg xmlns="http://www.w3.org/2000/svg" viewBox="0 0 440 56.4"><path d="M0 37.9V0h48.2v11.4H11.4v8.1h36.8v11.4H11.4v7zm48.2 1.2v11.4H0V39.1zm16.7 11.4H53.6V0h11.3zM98.5 0a17.2 17.2 0 003.3 1.9V23l-3.4 2.1a22.3 22.3 0 003.4 2.1v21.4a19.6 19.6 0 01-3.4 1.9H66.2V39.1h24.2v-8.2H66.2V19.5h24.2v-8.1H66.2V0zm45.4 11.4h-25.4v6.9h-11.4V0h48.2v18.3h-11.4zm11.4 8.1v31h-11.4V30.9h-25.4v19.6h-11.4v-31zM160.7 0h17.4c.4.4 6.4 9.8 18.1 28.1v22.4c-.4-.4-7.4-11.3-21-32.6l-3.1-4.9v37.5h-11.4zm48.1 50.5h-11.4V0h11.4zm16.8-11.4h24.2v11.4h-35.6V0h35.6v11.4h-24.2zM251 0h11.4v50.5H251zm16.7 37.9V0h48.2v11.4h-36.8v8.1h36.8v11.4h-36.8v7zm48.2 1.2v11.4h-48.2V39.1zm16.8 0v11.4h-11.4V39.1zm41.2 17.3h-11.4v-5.9h-24.2V0h35.6v11.4h-24.2v27.7h12.8v-5.8h11.4zM375.1 0h11.4v50.5h-11.4zm53.5 11.4h-25.4v6.9h-11.4V0H440v18.3h-11.4zm11.4 8.1v31h-11.4V30.9h-25.4v19.6h-11.4v-31z"/></svg>