<svg class="man-dicks" xmlns="http://www.w3.org/2000/svg" viewBox="0 0 1751.28 696.2">
<style>
.man-dicks {
	width: 100%;
	fill: #272727
	-webkit-transform: scale(-1, 1);
	transform: scale(-1, 1)
}
.man-dicks #man_text text {
	font-size: 26px;
	font-family: sans-serif;
	font-weight: bold;
	fill: #d8570b
}

.man-dicks #head,
.man-dicks #man,
.man-dicks #man_obj,
.man-dicks #man_obj_obj,
.man-dicks path {
	-webkit-animation-duration: 2s;
	animation-duration: 2s;
	-webkit-animation-fill-mode: both;
	animation-fill-mode: both;
	-webkit-animation-iteration-count: infinite;
	animation-iteration-count: infinite;
	-webkit-animation-delay: .3s;
	animation-delay: .3s
}

.man-dicks #dicks path {
	-webkit-animation-delay: 0s;
	animation-delay: 0s
}

.man-dicks #man_obj,
.man-dicks #man_obj_obj {
	-webkit-transform-origin: 42.05% 50.8%;
	-ms-transform-origin: 42.05% 50.8%;
	transform-origin: 42.05% 50.8%;
	-webkit-animation-duration: 10s;
	animation-duration: 10s;
	-webkit-animation-name: man_obj;
	animation-name: man_obj
}

.man-dicks #man_text {
	-webkit-transform-origin: 50% 50;
	-ms-transform-origin: 50% 50;
	transform-origin: 50% 50;
	-webkit-transform: translate3d(46%, 34%, 0);
	transform: translate3d(46%, 34%, 0);
	-webkit-animation-duration: 10s;
	animation-duration: 10s;
	-webkit-animation-fill-mode: both;
	animation-fill-mode: both;
	-webkit-animation-iteration-count: infinite;
	animation-iteration-count: infinite;
	-webkit-animation-delay: .3s;
	animation-delay: .3s;
	-webkit-animation-name: man_text;
	animation-name: man_text
}

.man-dicks #man_text>g {
	
}

.man-dicks #man_text text {
	-webkit-animation-duration: 1.5s;
	animation-duration: 1.5s;
	-webkit-animation-fill-mode: both;
	animation-fill-mode: both;
	-webkit-animation-iteration-count: infinite;
	animation-iteration-count: infinite;
	-webkit-animation-name: man_text_text;
	animation-name: man_text_text;
	-webkit-transform-origin: 0 5%;
	-ms-transform-origin: 0 5%;
	transform-origin: 0 5%;
	font-size: 26px;
	font-family: OfficinaSansBoldOSC, sans-serif;
	fill: #d8570b
}

.man-dicks #man_text #t_2 text {
	-webkit-animation-delay: .5s;
	animation-delay: .5s
}

.man-dicks #man_text #t_3 text {
	-webkit-animation-delay: 1s;
	animation-delay: 1s
}

.man-dicks #man_obj_obj {
	-webkit-animation-name: man_obj_obj;
	animation-name: man_obj_obj
}

.man-dicks #man {
	-webkit-transform-origin: 42.05% 50.8%;
	-ms-transform-origin: 42.05% 50.8%;
	transform-origin: 42.05% 50.8%;
	-webkit-animation-duration: 2s;
	animation-duration: 2s;
	-webkit-animation-delay: 0;
	animation-delay: 0;
	-webkit-animation-name: man;
	animation-name: man
}

.man-dicks #man #leg_r {
	-webkit-transform-origin: 43.15% 59.7%;
	-ms-transform-origin: 43.15% 59.7%;
	transform-origin: 43.15% 59.7%;
	-webkit-animation-name: leg_r;
	animation-name: leg_r
}

.man-dicks #man #leg_l {
	-webkit-transform-origin: 42.07% 59.35%;
	-ms-transform-origin: 42.07% 59.35%;
	transform-origin: 42.07% 59.35%;
	-webkit-animation-name: leg_l;
	animation-name: leg_l
}

.man-dicks #man #hand_l {
	-webkit-transform-origin: 39.75% 45.7%;
	-ms-transform-origin: 39.75% 45.7%;
	transform-origin: 39.75% 45.7%;
	-webkit-animation-name: hand_l;
	animation-name: hand_l
}

.man-dicks #man #hand_r {
	-webkit-transform-origin: 43.35% 44.55%;
	-ms-transform-origin: 43.35% 44.55%;
	transform-origin: 43.35% 44.55%;
	-webkit-animation-name: hand_r;
	animation-name: hand_r
}

.man-dicks #man #head {
	-webkit-transform-origin: 42% 42%;
	-ms-transform-origin: 42% 42%;
	transform-origin: 42% 42%;
	-webkit-animation-name: head;
	animation-name: head
}

.man-dicks #man #head #mouth {
	-webkit-transform-origin: 42.86% 38.2%;
	-ms-transform-origin: 42.86% 38.2%;
	transform-origin: 42.86% 38.2%;
	-webkit-animation-name: mouth;
	animation-name: mouth
}

.man-dicks #dicks path {
	-webkit-animation-duration: 10s;
	animation-duration: 10s
}

.man-dicks #dicks #dick_2 {
	-webkit-animation-name: dick_2;
	animation-name: dick_2
}

.man-dicks #dicks #dick_3 {
	-webkit-animation-name: dick_3;
	animation-name: dick_3
}

.man-dicks #dicks #dick_4 {
	-webkit-animation-name: dick_4;
	animation-name: dick_4
}

.man-dicks #dicks #dick_5 {
	-webkit-animation-name: dick_5;
	animation-name: dick_5
}

.man-dicks #dicks #dick_1 {
	-webkit-animation-name: dick_1;
	animation-name: dick_1
}

@-webkit-keyframes dick_2 {

	0%,
	90% {
		-webkit-transform: translate3d(0, 0, 0);
		transform: translate3d(0, 0, 0);
		visibility: visible
	}

	4%,
	89.99% {
		-webkit-transform: translate3d(1000px, -500px, 0);
		transform: translate3d(1000px, -500px, 0);
		visibility: hidden
	}
}

@keyframes dick_2 {

	0%,
	90% {
		-webkit-transform: translate3d(0, 0, 0);
		transform: translate3d(0, 0, 0);
		visibility: visible
	}

	4%,
	89.99% {
		-webkit-transform: translate3d(1000px, -500px, 0);
		transform: translate3d(1000px, -500px, 0);
		visibility: hidden
	}
}

@-webkit-keyframes dick_3 {

	0%,
	20% {
		-webkit-transform: translate3d(0, 0, 0);
		transform: translate3d(0, 0, 0);
		visibility: visible
	}

	100%,
	24% {
		-webkit-transform: translate3d(1000px, 400px, 0);
		transform: translate3d(1000px, 400px, 0);
		visibility: hidden
	}
}

@keyframes dick_3 {

	0%,
	20% {
		-webkit-transform: translate3d(0, 0, 0);
		transform: translate3d(0, 0, 0);
		visibility: visible
	}

	100%,
	24% {
		-webkit-transform: translate3d(1000px, 400px, 0);
		transform: translate3d(1000px, 400px, 0);
		visibility: hidden
	}
}

@-webkit-keyframes dick_4 {

	0%,
	40% {
		-webkit-transform: translate3d(0, 0, 0);
		transform: translate3d(0, 0, 0);
		visibility: visible
	}

	100%,
	44% {
		-webkit-transform: translate3d(400px, -1000px, 0);
		transform: translate3d(400px, -1000px, 0);
		visibility: hidden
	}
}

@keyframes dick_4 {

	0%,
	40% {
		-webkit-transform: translate3d(0, 0, 0);
		transform: translate3d(0, 0, 0);
		visibility: visible
	}

	100%,
	44% {
		-webkit-transform: translate3d(400px, -1000px, 0);
		transform: translate3d(400px, -1000px, 0);
		visibility: hidden
	}
}

@-webkit-keyframes dick_5 {

	0%,
	60% {
		-webkit-transform: translate3d(0, 0, 0);
		transform: translate3d(0, 0, 0);
		visibility: visible
	}

	100%,
	64% {
		-webkit-transform: translate3d(1000px, 300px, 0);
		transform: translate3d(1000px, 300px, 0);
		visibility: hidden
	}
}

@keyframes dick_5 {

	0%,
	60% {
		-webkit-transform: translate3d(0, 0, 0);
		transform: translate3d(0, 0, 0);
		visibility: visible
	}

	100%,
	64% {
		-webkit-transform: translate3d(1000px, 300px, 0);
		transform: translate3d(1000px, 300px, 0);
		visibility: hidden
	}
}

@-webkit-keyframes dick_1 {

	0%,
	80% {
		-webkit-transform: translate3d(0, 0, 0);
		transform: translate3d(0, 0, 0);
		visibility: visible
	}

	100%,
	84% {
		-webkit-transform: translate3d(-1000px, 0, 0);
		transform: translate3d(-1000px, 0, 0);
		visibility: hidden
	}
}

@keyframes dick_1 {

	0%,
	80% {
		-webkit-transform: translate3d(0, 0, 0);
		transform: translate3d(0, 0, 0);
		visibility: visible
	}

	100%,
	84% {
		-webkit-transform: translate3d(-1000px, 0, 0);
		transform: translate3d(-1000px, 0, 0);
		visibility: hidden
	}
}

@-webkit-keyframes man_obj {

	0%,
	10%,
	100% {
		-webkit-transform: translate3d(20px, -10px, 10px);
		transform: translate3d(20px, -10px, 10px)
	}

	20%,
	30% {
		-webkit-transform: translate3d(10px, 90px, 0);
		transform: translate3d(10px, 90px, 0)
	}

	40%,
	50% {
		-webkit-transform: translate3d(140px, 50px, 0);
		transform: translate3d(140px, 50px, 0)
	}

	60%,
	70% {
		-webkit-transform: translate3d(260px, 80px, 0);
		transform: translate3d(260px, 80px, 0)
	}

	80%,
	90% {
		-webkit-transform: translate3d(20px, 60px, 0);
		transform: translate3d(20px, 60px, 0)
	}
}

@keyframes man_obj {

	0%,
	10%,
	100% {
		-webkit-transform: translate3d(20px, -10px, 10px);
		transform: translate3d(20px, -10px, 10px)
	}

	20%,
	30% {
		-webkit-transform: translate3d(10px, 90px, 0);
		transform: translate3d(10px, 90px, 0)
	}

	40%,
	50% {
		-webkit-transform: translate3d(140px, 50px, 0);
		transform: translate3d(140px, 50px, 0)
	}

	60%,
	70% {
		-webkit-transform: translate3d(260px, 80px, 0);
		transform: translate3d(260px, 80px, 0)
	}

	80%,
	90% {
		-webkit-transform: translate3d(20px, 60px, 0);
		transform: translate3d(20px, 60px, 0)
	}
}

@-webkit-keyframes man_obj_obj {

	0%,
	70%,
	90.01% {
		-webkit-transform: scale(1, 1);
		transform: scale(1, 1)
	}

	70.01%,
	90% {
		-webkit-transform: scale(-1, 1);
		transform: scale(-1, 1)
	}
}

@keyframes man_obj_obj {

	0%,
	70%,
	90.01% {
		-webkit-transform: scale(1, 1);
		transform: scale(1, 1)
	}

	70.01%,
	90% {
		-webkit-transform: scale(-1, 1);
		transform: scale(-1, 1)
	}
}

@-webkit-keyframes man {
	80% {
		-webkit-transform: translate3d(0, 0, 0);
		transform: translate3d(0, 0, 0)
	}

	75% {
		-webkit-transform: translate3d(-30px, 10px, 0) rotate(15deg);
		transform: translate3d(-30px, 10px, 0) rotate(15deg)
	}
}

@keyframes man {
	80% {
		-webkit-transform: translate3d(0, 0, 0);
		transform: translate3d(0, 0, 0)
	}

	75% {
		-webkit-transform: translate3d(-30px, 10px, 0) rotate(15deg);
		transform: translate3d(-30px, 10px, 0) rotate(15deg)
	}
}

@-webkit-keyframes leg_r {
	85% {
		-webkit-transform: rotate(0);
		transform: rotate(0)
	}

	80% {
		-webkit-transform: rotate(70deg);
		transform: rotate(70deg)
	}
}

@keyframes leg_r {
	85% {
		-webkit-transform: rotate(0);
		transform: rotate(0)
	}

	80% {
		-webkit-transform: rotate(70deg);
		transform: rotate(70deg)
	}
}

@-webkit-keyframes leg_l {
	65% {
		-webkit-transform: rotate(-20deg);
		transform: rotate(-20deg)
	}

	0%,
	100% {
		-webkit-transform: rotate(20deg);
		transform: rotate(20deg)
	}
}

@keyframes leg_l {
	65% {
		-webkit-transform: rotate(-20deg);
		transform: rotate(-20deg)
	}

	0%,
	100% {
		-webkit-transform: rotate(20deg);
		transform: rotate(20deg)
	}
}

@-webkit-keyframes hand_r {
	78% {
		-webkit-transform: rotate(0);
		transform: rotate(0)
	}

	0%,
	100% {
		-webkit-transform: rotate(60deg);
		transform: rotate(60deg)
	}
}

@keyframes hand_r {
	78% {
		-webkit-transform: rotate(0);
		transform: rotate(0)
	}

	0%,
	100% {
		-webkit-transform: rotate(60deg);
		transform: rotate(60deg)
	}
}

@-webkit-keyframes hand_l {
	72% {
		-webkit-transform: rotate(-60deg);
		transform: rotate(-60deg)
	}

	0%,
	100% {
		-webkit-transform: rotate(0);
		transform: rotate(0)
	}
}

@keyframes hand_l {
	72% {
		-webkit-transform: rotate(-60deg);
		transform: rotate(-60deg)
	}

	0%,
	100% {
		-webkit-transform: rotate(0);
		transform: rotate(0)
	}
}

@-webkit-keyframes head {
	72% {
		-webkit-transform: rotate(-20deg);
		transform: rotate(-20deg)
	}

	0%,
	100% {
		-webkit-transform: rotate(0);
		transform: rotate(0)
	}
}

@keyframes head {
	72% {
		-webkit-transform: rotate(-20deg);
		transform: rotate(-20deg)
	}

	0%,
	100% {
		-webkit-transform: rotate(0);
		transform: rotate(0)
	}
}

@-webkit-keyframes man_text {

	70%,
	90% {
		visibility: hidden
	}
}

@keyframes man_text {

	70%,
	90% {
		visibility: hidden
	}
}

@-webkit-keyframes man_text_text {
	30% {
		-webkit-transform: matrix(1.05, 0, 0, .95, 20, 2);
		transform: matrix(1.05, 0, 0, .95, 20, 2)
	}

	50% {
		opacity: 0
	}

	60% {
		-webkit-transform: matrix(.95, 0, 0, 1.05, 20, 0);
		transform: matrix(.95, 0, 0, 1.05, 20, 0)
	}
}

@keyframes man_text_text {
	30% {
		-webkit-transform: matrix(1.05, 0, 0, .95, 20, 2);
		transform: matrix(1.05, 0, 0, .95, 20, 2)
	}

	50% {
		opacity: 0
	}

	60% {
		-webkit-transform: matrix(.95, 0, 0, 1.05, 20, 0);
		transform: matrix(.95, 0, 0, 1.05, 20, 0)
	}
}

@-webkit-keyframes mouth {
	17% {
		-webkit-transform: scale(1, 1.2);
		transform: scale(1, 1.2)
	}

	28% {
		-webkit-transform: scale(1.2, 1.1);
		transform: scale(1.2, 1.1)
	}

	43% {
		-webkit-transform: scale(.9, 1.2);
		transform: scale(.9, 1.2)
	}

	52% {
		-webkit-transform: scale(1, 1.2);
		transform: scale(1, 1.2)
	}

	74% {
		-webkit-transform: scale(1.2, 1.1);
		transform: scale(1.2, 1.1)
	}

	80% {
		-webkit-transform: scale(1.1, 1.3);
		transform: scale(1.1, 1.3)
	}

	88% {
		-webkit-transform: scale(1.1, 1.3);
		transform: scale(1.1, 1.3)
	}

	0%,
	100% {
		-webkit-transform: scale(1, 1);
		transform: scale(1, 1)
	}
}

@keyframes mouth {
	17% {
		-webkit-transform: scale(1, 1.2);
		transform: scale(1, 1.2)
	}

	28% {
		-webkit-transform: scale(1.2, 1.1);
		transform: scale(1.2, 1.1)
	}

	43% {
		-webkit-transform: scale(.9, 1.2);
		transform: scale(.9, 1.2)
	}

	52% {
		-webkit-transform: scale(1, 1.2);
		transform: scale(1, 1.2)
	}

	74% {
		-webkit-transform: scale(1.2, 1.1);
		transform: scale(1.2, 1.1)
	}

	80% {
		-webkit-transform: scale(1.1, 1.3);
		transform: scale(1.1, 1.3)
	}

	88% {
		-webkit-transform: scale(1.1, 1.3);
		transform: scale(1.1, 1.3)
	}

	0%,
	100% {
		-webkit-transform: scale(1, 1);
		transform: scale(1, 1)
	}
}
</style>
<g id="dicks">
	<path id="dick_5" d="M1153.23,439.94c1.07,6.41,2.2,14.92,4,23.3,1.72,8.17-1,11.19-9.32,10-2.09-.3-5.74-.09-6.23,1a9.69,9.69,0,0,0,.32,7.2c1.13,2.51,3.13,5.22,5.47,6.39,1.77.88,4.72-1,7.06-.78s5.56.84,6.74,2.47,1.09,5.12.11,7.08c-3.83,7.69-11.28,9.72-18.45,5-9.14-6-15.76-13.75-15.3-25.64.27-6.81,3-12.43,9-15.48,4.17-2.1,4.49-4.8,4.34-8.8-.47-12.23-1.76-24.49,2-36.58,1.91-6.2,4.75-11.45,11.56-12.3,7.21-.89,13,2.86,16,9.11,3.46,7.25,5.68,15.1,8.34,22.72a18.66,18.66,0,0,1,1.09,5.36c.29,8.64,2.78,13.82,13.12,15.22,15.75,2.13,23.12,23.84,15.53,36.16-4.5,7.31-11.57,10.47-19.61,11.3-2.51.26-5.72-1.22-7.79-2.91-4-3.25-2.38-8.85,2.63-10.27a21.65,21.65,0,0,1,3.89-.38c7.31-.67,10.13-3.62,9.86-10.31s-4.36-10.88-10.82-10.94a18,18,0,0,0-5.34,1c-7.62,2.33-10.06,1-11.37-6.61-1-5.67-1.14-11.52-2.58-17-2.17-8.29-5.1-16.38-7.86-24.51-.35-1-1.65-1.72-2.52-2.57-.63,1.09-1.67,2.14-1.82,3.3C1154.51,426.79,1154,432.24,1153.23,439.94Z" />
	<path id="dick_4" d="M1093.81,460.64c-.3,12.12-5.56,20.07-14.11,25.49-11.36,7.19-30.35-2.1-32.82-16.35-1-5.69-3.17-6.83-8-6.59-8.35.4-16-2.27-23.2-6.17-6.77-3.66-10.95-12.41-9.38-19.17,1.38-6,8.44-11.72,16-11.66a91.34,91.34,0,0,1,18.56,2.5c3.68.8,5.61.66,7.16-3.29,2.86-7.25,7.37-13,15.62-15.18a26.86,26.86,0,0,1,23.82,4.23c8,5.75,10.62,16,6.78,25.22-1.73,4.17-5,6-8.6,4.82s-5.07-4.52-4.19-8.89c1.61-8-3.15-13.47-11.24-12.85-5.76.44-8.9,4-8.69,9.83.51,14-1.45,15.49-15.25,11.76-5-1.36-10-2.83-15.11-4.07a19.78,19.78,0,0,0-6.2-.67c-1.36.11-3.79,1.31-3.75,1.87.12,1.55.91,3.87,2.09,4.39a44.31,44.31,0,0,0,11.81,3.72c7,.88,14.07,1.08,21.12,1.31,3.55.11,6.91.21,8.67,3.91,1.58,3.3.09,5.85-1.92,8.56-3.65,4.92-2.61,8,2.91,10.11,5.23,2,8.08,1.12,11.42-3.57,2.69-3.77,3.52-6.9-.78-10.79s-1.8-10,4-11C1088.57,446.85,1094.59,452.2,1093.81,460.64Z" />
	<path id="dick_3" d="M915.61,463.41c.35,2.84,1.17,5.73.9,8.51a12.1,12.1,0,0,1-2.78,6.75c-2.22,2.36-5.34,1.77-7.91,0a75.72,75.72,0,0,1-6.75-5.34c-2.42-2.14-4.78-2.13-6.89.14-2.44,2.64-5.9,5.53-3.21,9.4,1.33,1.92,4.6,2.51,7,3.66.17.08.51-.11.73-.24,3.48-2.08,7.2-2.92,9.62,1a9.24,9.24,0,0,1,.62,7.23c-1.5,3.83-3.87,8.28-8.84,7.58-8.44-1.19-16.43-4.46-21-12.1-4.36-7.36-3.3-15.06,1.85-22,4.7-6.36,10.11-11.4,18.9-10.14,2.91.42,4.29-1,4.84-3.75.86-4.36,2-8.65,2.93-13,1.71-8.17,5.82-15,11.24-21.23s11.65-9.35,20.1-6.83c8.78,2.62,13.25,8.64,15,17.29,2,10.27.06,20.28-1.82,30.27-.72,3.85-.29,5.91,3.69,7.91,13.55,6.82,14.1,24.9.94,33.17-4.06,2.54-9.14,3.91-13.94,4.67s-8.82-1.89-11-6c-1-1.92-1.12-5.45,0-7.1s4.33-2,6.71-2.59c.82-.19,1.87.81,2.86,1.13,5.32,1.72,9.57-.39,10.71-5.69.32-1.48-.26-3.92-1.33-4.73s-3.28-.19-5-.15c-.21,0-.45.27-.62.46-2.66,3.07-5.63,4.83-9.46,1.93-4.06-3.06-2.84-6.73-1.21-10.55a87.58,87.58,0,0,0,6.68-31.23,41.22,41.22,0,0,0-.76-10.11c-1.19-5.52-6.32-7.38-10.7-3.71a22.16,22.16,0,0,0-6,8C918.1,444.71,915.7,453.8,915.61,463.41Z" />
	<path id="dick_2" d="M912.83,395.68c-8-.42-16.85-4.42-21.82-14.8a14,14,0,0,1-1.52-4.4A6.73,6.73,0,0,1,894,369c3.48-1.32,6,.32,7.85,3.35,5.83,9.46,10.83,12,18.69,9.49,7.51-2.35,14.33-11.81,14.23-19.74,0-4.19-1.19-5-5.31-3.72a19.67,19.67,0,0,0-2.16.95c-3.51,1.57-6.85,1.33-9-2-2.38-3.63-1.27-7,1.94-9.7,9.34-7.75,17.71-16.38,22.83-27.5a34.25,34.25,0,0,0,3.36-13.43c.09-6.79-4.87-9.23-10.53-5.52a40.27,40.27,0,0,0-9.41,8.17c-6.83,8.58-12.77,17.77-15.71,28.53-1.07,3.89-3.23,6.72-7.57,6.64-4.14-.07-5.45-3-6.46-6.64-2.94-10.47-9.9-13.6-17.14-8-3.32,2.57-3.78,6-3.09,9.85.65,3.58,2.79,5.46,6.31,5.94a22.22,22.22,0,0,1,3.86.64c3.24,1,4.83,3.68,4,6.66-.59,2.13-2.47,4.69-4.42,5.49-6.33,2.59-14.68-.77-19.26-7.05-6.41-8.81-6.21-21.13.81-29.05,5.72-6.44,18.91-11.72,30.23-5.83,5.54,2.89,5.59,2.89,8.82-2.43,5.32-8.75,11-17.2,19.75-23a31.27,31.27,0,0,1,6.91-3.58c13.66-4.71,25.21,2.88,26.64,17.39A35.46,35.46,0,0,1,955.25,326a158.91,158.91,0,0,1-10.47,15.59c-1.91,2.62-2.63,4.75-.58,7.69C955.91,366.11,939.91,395.67,912.83,395.68Z" />
	<path id="dick_1" d="M626.52,456.83c0,17.82-16.44,31.73-33.53,28.45a21.36,21.36,0,0,1-3.79-1c-4.48-1.78-6.63-5.34-5.57-9,1.11-3.89,4.29-5.28,9.45-4.11,8.35,1.89,13.64-.08,18.17-6.86A9.63,9.63,0,0,0,613,460.8c.61-3.57,1.75-7.66-2-10-3.37-2.16-6.28-.1-9.07,2.29-4.41,3.76-7.7,3.48-11.12-1.31-2.23-3.11-3.42-7-5.1-10.47-3.05-6.33-5.7-12.89-9.3-18.89-2.89-4.84-7.66-6.65-10.33-5.26s-3.32,6.1-.36,11.51c4.08,7.48,6.63,15.95,13.5,21.8,2.47,2.09,3.9,4.89,1.82,8.34s-5.4,4.31-8.8,2.94a16.05,16.05,0,0,0-14.35.6c-3.45,1.86-5,6.33-3.38,9.34,1.8,3.43,5,4.38,9.15,2.16,3.63-1.95,6.88-2.7,9.69,1,2.35,3.12,1.6,7.23-2.09,10.42-4.4,3.82-9.42,5.42-15.28,3.65-8-2.4-15.4-10.31-16.18-17.52-.92-8.42,4.49-17.43,12.91-21.51,6.67-3.24,6.44-3.14,3.66-9.89a87.61,87.61,0,0,1-5.3-16.27c-1.39-7.11.8-13.66,6.85-18,6.49-4.62,13.47-3.17,20.1.14,7.71,3.85,11.55,11.1,15.44,18.23.87,1.6,1.35,3.4,2.11,5.06,4,8.76,2.57,7.83,11.25,6.95C618.85,434.92,626.57,443.18,626.52,456.83Z" />
</g>
<g id="man_obj">
	<g id="man_obj_obj">
		<g id="man">
			<path id="leg_l" d="M736.69,406.24a6.93,6.93,0,0,0-6.21,3.87c-.14.42-.3.83-.47,1.23a19.84,19.84,0,0,1-3.2,5.28c-10.89,13-21.75,26.08-32.26,39.41a113.87,113.87,0,0,0-9.9,15.86c-1.82,3.31-1.06,6.69,2.25,8.93s6.53,1.21,9.27-2.8c2.51-3.66,4.36-7.8,7.1-11.26,11.17-14.12,22.29-28.29,34-41.95a35.62,35.62,0,0,0,5-7.58c.44-.92.85-1.86,1.2-2.8a7.47,7.47,0,0,0,.12-1.26A6.93,6.93,0,0,0,736.69,406.24Z" />
			<path id="leg_r" d="M756.75,422.24c-3.54.08-6.3-1.53-7.28-5.37-.92-3.57,1.38-7,5.88-7.75,8.77-1.4,17.61-2.63,26.48-3.27,19.84-1.42,39.7-2.42,59.56-3.61,6.41-.39,6.93-.88,5.5-7.07-1.19-5.08-2.83-10.05-4.35-15.05-1.75-5.71-.66-9.24,3.35-10.46,4.2-1.28,8,.54,9.51,5.77,2.84,10.05,5.25,20.23,7.35,30.46.86,4.18-2.88,7.52-8.67,8.05-9.38.85-18.81,1.15-28.2,1.95C804,417.76,758.12,422.05,756.75,422.24Z" />
			<path id="hand_l" d="M648.62,340.12c-4.43.56-7.14-.82-8.59-4s.41-5.55,2.67-7.5a16.46,16.46,0,0,1,4-2.34A213.79,213.79,0,0,1,694,312.2c4.5-.84,8,1.1,8.76,4.49s-1.42,6.75-5.73,8.09c-3.48,1.08-7.19,1.45-10.67,2.55-10.45,3.32-20.84,6.81-31.23,10.29C652.62,338.45,650.23,339.5,648.62,340.12Z" />
			<path id="hand_r" d="M813.92,321.83c.16,5.43-3.34,8.4-8.14,7.18q-23.43-5.91-46.78-12.1c-5.45-1.44-7.27-4-6.42-8s4.51-6.27,9.87-4.84c5.77,1.54,11.22,4.29,17,5.69,8.84,2.14,17.86,3.55,26.79,5.33C810.37,315.88,813.66,317.66,813.92,321.83Z" />
			<g id="head">
				<path id="mouth" d="M752.27,258.51a39.24,39.24,0,0,1,4.44,0c3.93.58,7.8,4.39,7.78,7.57,0,3.69-3,5.92-8.27,6.2-3.37.19-6.72.56-10.09.77-4.45.27-7.85-1.79-8.53-5.08s1.38-6.34,6-7.73A81.73,81.73,0,0,1,752.27,258.51Z" />
				<path id="face" d="M792.73,246.45c.59-9.62-2.78-18.64-7.36-27.27-12-22.49-42.49-36.62-67-25.62-8.32,3.73-16.78,7.16-25,11.13a21.39,21.39,0,0,0-7.92,6.22,122.11,122.11,0,0,0-9.15,15.45c-7.07,13.63-4.89,27.17,2.36,39.67,9.64,16.6,24.39,26.94,43.22,31.26,2.72.62,4.35,1,5.39,1.79a3.31,3.31,0,0,1,.82.85,11.1,11.1,0,0,0,15.29-.17,4,4,0,0,1,.92-1,6.62,6.62,0,0,1,3.14-1.17c2.07-.3,4.11-.79,6.15-1.23C773.39,292.1,794.46,270.65,792.73,246.45ZM745.52,284.7l-1.11.19a50.08,50.08,0,0,1-17.3-.25c-14.4-2.63-28.15-11-35.68-22.75a34.36,34.36,0,0,1,2.41-40.28,21.87,21.87,0,0,1,13.95-8c5.37-.79,10.14-2,14.65-6.28,4.91-4.68,12.56-5.2,19.4-3.82,23.1,4.66,36.39,20.59,37.45,43.8C779.29,266.08,766.06,280.73,745.52,284.7Z" />
				<g id="man_text">
					<g id="t_1" transform="translate(180 0), scale(-1, 1)"><text>Ёпта</text></g>
					<g id="t_2" transform="translate(183 25), scale(-1, 1)"><text>Пиздец, бля</text></g>
					<g id="t_3" transform="translate(180 50), scale(-1, 1)"><text>Уууу!</text></g>
				</g>
			</g>
			<path id="body" d="M744.64,332.25c-.21-9.39-1.11-18.77-1.95-28.12,0-.36,0-.69-.05-1a7.76,7.76,0,0,1,.24-2.15,4.51,4.51,0,0,1,.94-1.75l.08-.12a.41.41,0,0,0,0-.16,7.83,7.83,0,0,0-1.85-5.23,8,8,0,0,0-4.52-2.67,7.91,7.91,0,0,0-9.44,7.76,6.45,6.45,0,0,0,0,.76,2,2,0,0,0,.14.69,4.11,4.11,0,0,1,.25.57,7.78,7.78,0,0,1,.36,1.42,37.23,37.23,0,0,1,.37,3.8c.65,9.63,1,19.29,1.9,28.9a408.81,408.81,0,0,1,.54,68.83,24.92,24.92,0,0,1-1.23,6.34c-.14.42-.3.83-.47,1.23a7.41,7.41,0,0,0-.25,1.83,6.93,6.93,0,0,0,12.54,4.06c.44-.92.85-1.86,1.2-2.8a32.84,32.84,0,0,0,2-11.71Q745.41,367.49,744.64,332.25Z" />
		</g>
	</g>
</g>
</svg>
